<svg width="74" height="80" viewBox="0 0 74 80" fill="none" xmlns="http://www.w3.org/2000/svg"><path d="M38.907 39.927a.196.196 0 01.003.139.21.21 0 01-.088.107c-.67.416-1.217 1.35-1.627 2.774-.337 1.173-.493 2.387-.556 3.007a.078.078 0 01-.078.072.078.078 0 01-.08-.072c-.062-.62-.218-1.835-.555-3.007-.41-1.425-.957-2.358-1.627-2.774a.21.21 0 01-.088-.107.196.196 0 01.003-.14l2.199-5.47a.156.156 0 01.148-.1c.066 0 .123.039.147.1l2.199 5.47zM18.473 73.186a.16.16 0 00-.18-.135l-6.39.889a.158.158 0 01-.18-.169l.492-7.063a.16.16 0 00-.148-.17l-6.586-.458a.158.158 0 01-.123-.074.158.158 0 01-.014-.142l2.803-7.237a.158.158 0 00-.09-.205L1.2 55.724a.157.157 0 01-.096-.11.158.158 0 01.034-.142L6.697 49a.158.158 0 00-.016-.224L.389 43.341a.158.158 0 01-.054-.139.158.158 0 01.083-.122l8.246-4.364a.159.159 0 00.068-.213l-4.27-8.473a.158.158 0 01.125-.23l10.486-1.146a.158.158 0 00.14-.186c-.078-.437-.297-1.703-.543-3.445-.246-1.74-.52-3.957-.706-6.295a.16.16 0 00-.259-.113A36.705 36.705 0 003.72 31.067 36.41 36.41 0 000 47.152a36.39 36.39 0 005.28 18.936 36.737 36.737 0 0013.808 13.187.158.158 0 00.168-.01.159.159 0 00.067-.154l-.85-5.925zM13.32 33.649a1.87 1.87 0 10-3.74 0 1.87 1.87 0 003.74 0zM9.287 43.972a1.77 1.77 0 10-3.541 0 1.77 1.77 0 003.541 0zm-3.47 10.126a1.671 1.671 0 103.342 0 1.671 1.671 0 00-3.343 0zm4.662 10.398a1.591 1.591 0 100-3.183 1.591 1.591 0 000 3.183zm3.565 5.316a1.512 1.512 0 103.024 0 1.512 1.512 0 00-3.024 0zM69.4 31.067a36.703 36.703 0 00-9.986-12.452.16.16 0 00-.259.113 105.77 105.77 0 01-.705 6.295 101.437 101.437 0 01-.543 3.445.158.158 0 00.14.186L68.532 29.8a.158.158 0 01.125.23l-4.27 8.473a.158.158 0 00.067.212L72.7 43.08a.158.158 0 01.03.261l-6.292 5.435a.158.158 0 00-.017.224l5.56 6.472a.158.158 0 01-.062.252l-6.858 2.698a.158.158 0 00-.09.205l2.804 7.236a.158.158 0 01-.138.217l-6.586.458a.159.159 0 00-.148.17l.493 7.063a.159.159 0 01-.18.169l-6.391-.89a.159.159 0 00-.18.136l-.85 5.925a.158.158 0 00.068.154c.046.033.11.041.167.01a36.736 36.736 0 0013.809-13.187 36.388 36.388 0 005.28-18.936 36.41 36.41 0 00-3.72-16.085zm-7.73.712a1.87 1.87 0 100 3.74 1.87 1.87 0 000-3.74zm5.704 12.193a1.77 1.77 0 10-3.542 0 1.77 1.77 0 003.542 0zM63.96 54.098a1.671 1.671 0 103.342 0 1.671 1.671 0 00-3.342 0zm-1.32 7.215a1.592 1.592 0 100 3.183 1.592 1.592 0 000-3.183zm-5.078 10.011a1.512 1.512 0 100-3.024 1.512 1.512 0 000 3.024z" fill="#FF00A5"/><path d="M32.08 66.239a.155.155 0 01.008.127.16.16 0 01-.09.091 13.93 13.93 0 00-2.896 1.633 16.958 16.958 0 00-2.594 2.35.116.116 0 00-.006.153.117.117 0 00.15.032 16.57 16.57 0 013.319-1.299c1.2-.332 2.492-.563 3.875-.692.408-.038.867-.125 1.317-.37.449-.245.888-.648 1.256-1.318a.158.158 0 01.14-.083c.055 0 .11.028.14.083.368.67.808 1.073 1.257 1.318.45.245.908.332 1.316.37a22.27 22.27 0 013.876.692c1.2.332 2.307.766 3.318 1.3.06.03.118.009.15-.033a.116.116 0 00-.005-.154 16.97 16.97 0 00-2.594-2.35 13.93 13.93 0 00-2.897-1.632.16.16 0 01-.09-.091.154.154 0 01.008-.127 134.185 134.185 0 008.583-20.571c2.768-8.583 5.055-18.686 5.697-29.697a.322.322 0 00-.157-.296 36.367 36.367 0 00-18.602-5.082 36.366 36.366 0 00-18.602 5.082.32.32 0 00-.156.296c.641 11.011 2.928 21.114 5.696 29.697a134.191 134.191 0 008.583 20.57zm5.077-23.303c-.337 1.171-.493 2.379-.557 3.014a.038.038 0 01-.04.036.039.039 0 01-.039-.036c-.064-.635-.22-1.843-.557-3.014-.337-1.172-.855-2.307-1.644-2.797a.17.17 0 01-.071-.087.155.155 0 01.002-.11l2.199-5.471a.118.118 0 01.11-.075c.046 0 .091.025.111.075l2.2 5.47a.155.155 0 01.001.111.171.171 0 01-.07.087c-.79.49-1.308 1.625-1.645 2.797zm-13.178-25.59a.038.038 0 01.046.027 13.147 13.147 0 002.415 4.32.08.08 0 00.076.026.077.077 0 00.06-.053c.109-.342.438-1.295 1.054-2.476.616-1.18 1.518-2.589 2.776-3.843.03-.03.07-.03.1-.011a.075.075 0 01.03.094c-.562 1.477-.862 3.245-1.017 4.864a36.614 36.614 0 00-.152 3.964c0 .048.035.075.072.078a.077.077 0 00.085-.064c.16-.868.494-2.325 1.128-3.946.634-1.62 1.569-3.405 2.933-4.925a.077.077 0 01.103-.013c.03.02.047.06.027.101-.947 1.988-1.23 4.305-1.258 6.245-.027 1.94.203 3.5.282 3.977a.243.243 0 00.169.192 13.112 13.112 0 003.651.51c2.92 0 5.616-.946 7.802-2.55a13.238 13.238 0 004.733-6.49.039.039 0 01.045-.026.04.04 0 01.032.043c-.936 13.715-2.757 24.21-4.73 32.059-1.974 7.85-4.1 13.055-5.646 16.193a.154.154 0 01-.07.07.162.162 0 01-.1.014 11.556 11.556 0 00-.644-.096.16.16 0 01-.107-.06.155.155 0 01-.032-.116 394.161 394.161 0 001.713-15.646 392.16 392.16 0 001.321-20.936.159.159 0 00-.2-.16 15.97 15.97 0 01-4.117.535 16.145 16.145 0 01-4.117-.534.159.159 0 00-.2.16 393.1 393.1 0 001.321 20.935c.558 6.22 1.18 11.558 1.713 15.646a.156.156 0 01-.032.117.16.16 0 01-.107.059 11.612 11.612 0 00-.644.096.161.161 0 01-.1-.014.153.153 0 01-.07-.07c-1.546-3.138-3.672-8.344-5.645-16.194-1.974-7.85-3.795-18.344-4.73-32.06a.039.039 0 01.031-.042zm-.113-7.562a.117.117 0 01-.033-.117A13.222 13.222 0 0128.5 2.743 13.148 13.148 0 0136.559 0a13.343 13.343 0 013.238.4.079.079 0 01.059.06.078.078 0 01-.03.08c-.266.206-.91.735-1.66 1.57a14.769 14.769 0 00-2.303 3.404.079.079 0 00.024.1c.028.021.07.025.102-.006a16.041 16.041 0 014.179-2.84 14.407 14.407 0 012.919-1.02.078.078 0 01.091.049.077.077 0 01-.033.098c-.399.236-1.023.654-1.705 1.285a10.906 10.906 0 00-2.047 2.57.078.078 0 00.018.101.078.078 0 00.102 0 11.044 11.044 0 013.643-2.004c1.057-.343 1.864-.426 2.141-.445a.239.239 0 01.178.062c.9.823 1.684 1.77 2.328 2.812a13.137 13.137 0 011.483 3.39.117.117 0 01-.034.118.119.119 0 01-.12.027 39.155 39.155 0 00-6.118-1.524 39.62 39.62 0 00-6.455-.527c-2.198 0-4.354.18-6.454.527-2.1.346-4.144.86-6.119 1.524a.12.12 0 01-.12-.027zm27.62 70.028a.158.158 0 01-.21.178c-2.042-.742-4.338-1.334-6.815-1.74a49.019 49.019 0 00-7.902-.627c-2.766 0-5.424.22-7.901.627-2.478.406-4.773.998-6.815 1.74a.158.158 0 01-.21-.178c.484-2.512 1.71-4.752 3.787-6.442 2.078-1.69 5.008-2.83 8.9-3.144a.318.318 0 01.303.16c.449.77.834 1.405 1.14 1.9.306.493.532.845.664 1.047a.157.157 0 00.132.072c.05 0 .101-.024.132-.072.132-.202.359-.554.665-1.048.306-.494.69-1.13 1.14-1.9a.323.323 0 01.302-.159c3.893.313 6.822 1.454 8.9 3.144 2.078 1.69 3.303 3.93 3.788 6.442z" fill="#fff"/></svg>